<svg width="33" height="33" viewBox="0 0 33 33" fill="none" xmlns="http://www.w3.org/2000/svg">
<rect y="32.6392" width="32.4108" height="32.4108" rx="16.2054" transform="rotate(-90 0 32.6392)" fill="#111111"/>
<path d="M19.2375 9.12312L18.0201 7.90577M19.2375 9.12312L13.8635 14.4971C13.7648 14.5958 13.6358 14.6586 13.4972 14.6755L11.289 14.9439C10.772 15.0067 10.5544 15.6374 10.9226 16.0057L14.0735 19.1565M19.2375 9.12312L24.1069 13.9925M25.3242 15.2099L24.1069 13.9925M24.1069 13.9925L18.7329 19.3665C18.6342 19.4652 18.5714 19.5942 18.5545 19.7328L18.2861 21.941C18.2232 22.458 17.5925 22.6756 17.2243 22.3074L14.0735 19.1565M14.0735 19.1565L9.92872 23.3013" stroke="#1ED760" stroke-width="1.60407" stroke-linecap="round" stroke-linejoin="round"/>
</svg>
