<svg width="41" height="41" viewBox="0 0 41 41" fill="none" xmlns="http://www.w3.org/2000/svg">
<rect width="20" height="20" rx="3" transform="matrix(1 0 0 -1 10.0757 31.4453)" stroke="#898989" stroke-width="2" stroke-linejoin="round"/>
<path d="M12.0757 11.4453H28.0757V11.4453C28.0757 9.78846 26.7325 8.44531 25.0757 8.44531H15.0757C13.4188 8.44531 12.0757 9.78846 12.0757 11.4453V11.4453Z" stroke="#898989" stroke-width="1.5" stroke-linejoin="round"/>
<path d="M20.5883 22.4012V17.0703C20.5883 16.7251 20.8681 16.4453 21.2133 16.4453H23.3297M20.5883 22.4012V25.4182C20.5883 25.9731 20.1944 26.4565 19.6397 26.4442C18.6777 26.4228 17.3297 26.089 17.3297 24.3865C17.3297 21.7394 20.5883 22.4012 20.5883 22.4012Z" stroke="#898989" stroke-width="1.5" stroke-linecap="round" stroke-linejoin="round"/>
</svg>
