<svg width="106" height="106" viewBox="0 0 106 106" fill="none" xmlns="http://www.w3.org/2000/svg">
<path d="M58.4008 36.4995L53.536 41.2132L48.6713 36.4995C43.5703 31.5569 35.3873 31.8298 30.6269 37.1013C26.0077 42.2165 25.3718 49.8781 29.5546 55.3559C30.0686 56.029 30.574 56.6737 31.055 57.2637C34.0995 60.9986 40.7421 67.5211 44.0703 71.0214C46.5292 73.6074 48.7395 75.7642 50.4047 77.3352C52.1631 78.9942 54.8775 78.9579 56.6393 77.3025C59.7096 74.4175 64.418 69.9236 67.7346 66.4355C71.0628 62.9352 72.9726 60.9986 76.0171 57.2637C76.4981 56.6737 77.0035 56.029 77.5175 55.3559C81.7003 49.8781 81.0643 42.2165 76.4451 37.1013C71.6847 31.8298 63.5018 31.5569 58.4008 36.4995Z" stroke="#1ED760" stroke-width="6.81316" stroke-linecap="round" stroke-linejoin="round"/>
</svg>
