<svg width="41" height="41" viewBox="0 0 41 41" fill="none" xmlns="http://www.w3.org/2000/svg">
<path d="M22.9406 9.23779H18.7078C18.4257 9.23779 18.1811 9.32946 17.9742 9.51279C17.7672 9.69613 17.645 9.92529 17.6073 10.2003L17.2687 12.7578C17.0242 12.8495 16.7939 12.9595 16.5779 13.0878C16.3612 13.2161 16.1494 13.3536 15.9425 13.5003L13.4875 12.5103C13.2241 12.4186 12.9607 12.4095 12.6974 12.4828C12.434 12.5561 12.227 12.712 12.0766 12.9503L9.9884 16.4978C9.8379 16.7361 9.79087 16.9928 9.84731 17.2678C9.90374 17.5428 10.0448 17.7628 10.2706 17.9278L12.387 19.4953C12.3681 19.6236 12.3587 19.7476 12.3587 19.8671V20.6096C12.3587 20.7284 12.3681 20.852 12.387 20.9803L10.2706 22.5478C10.0448 22.7128 9.90374 22.9328 9.84731 23.2078C9.79087 23.4828 9.8379 23.7395 9.9884 23.9778L12.0766 27.5253C12.2082 27.782 12.4103 27.9426 12.6827 28.0071C12.9558 28.0709 13.2241 28.057 13.4875 27.9653L15.9425 26.9753C16.1494 27.122 16.3657 27.2595 16.5915 27.3878C16.8172 27.5161 17.043 27.6261 17.2687 27.7178L17.6073 30.2753C17.645 30.5503 17.7672 30.7795 17.9742 30.9628C18.1811 31.1461 18.4257 31.2378 18.7078 31.2378H22.9406C23.2228 31.2378 23.4673 31.1461 23.6743 30.9628C23.8812 30.7795 24.0035 30.5503 24.0411 30.2753L24.3797 27.7178C24.6243 27.6261 24.8549 27.5161 25.0716 27.3878C25.2876 27.2595 25.499 27.122 25.706 26.9753L28.161 27.9653C28.4243 28.057 28.6877 28.0661 28.9511 27.9928C29.2145 27.9195 29.4214 27.7636 29.5719 27.5253L31.66 23.9778C31.8105 23.7395 31.8576 23.4828 31.8011 23.2078C31.7447 22.9328 31.6036 22.7128 31.3779 22.5478L29.2615 20.9803C29.2803 20.852 29.2897 20.7284 29.2897 20.6096V19.8671C29.2897 19.7476 29.2709 19.6236 29.2333 19.4953L31.3496 17.9278C31.5754 17.7628 31.7165 17.5428 31.7729 17.2678C31.8294 16.9928 31.7823 16.7361 31.6318 16.4978L29.5437 12.9778C29.3932 12.7395 29.1817 12.5789 28.9093 12.496C28.6362 12.4139 28.3679 12.4186 28.1045 12.5103L25.706 13.5003C25.499 13.3536 25.2827 13.2161 25.057 13.0878C24.8312 12.9595 24.6055 12.8495 24.3797 12.7578L24.0411 10.2003C24.0035 9.92529 23.8812 9.69613 23.6743 9.51279C23.4673 9.32946 23.2228 9.23779 22.9406 9.23779Z" stroke="#898989" stroke-width="2"/>
<circle cx="3.34783" cy="3.34783" r="3.34783" transform="matrix(1 0 0 -1 17.4763 23.5854)" stroke="#898989" stroke-width="2"/>
</svg>
