<svg width="41" height="42" viewBox="0 0 41 42" fill="none" xmlns="http://www.w3.org/2000/svg">
<rect width="20" height="20" rx="3" transform="matrix(1 0 0 -1 10.4865 32.0347)" stroke="#898989" stroke-width="2" stroke-linejoin="round"/>
<path d="M12.4865 12.0347H28.4865V12.0347C28.4865 10.3778 27.1433 9.03467 25.4865 9.03467H15.4865C13.8296 9.03467 12.4865 10.3778 12.4865 12.0347V12.0347Z" stroke="#898989" stroke-width="1.5" stroke-linejoin="round"/>
<path d="M20.9991 22.9906V17.6597C20.9991 17.3145 21.2789 17.0347 21.6241 17.0347H23.7405M20.9991 22.9906V26.0076C20.9991 26.5624 20.6052 27.0459 20.0505 27.0335C19.0885 27.0121 17.7405 26.6784 17.7405 24.9758C17.7405 22.3288 20.9991 22.9906 20.9991 22.9906Z" stroke="#898989" stroke-width="1.5" stroke-linecap="round" stroke-linejoin="round"/>
</svg>
