<svg width="41" height="41" viewBox="0 0 41 41" fill="none" xmlns="http://www.w3.org/2000/svg">
<path d="M23.573 13.8183C23.573 15.6781 22.0653 17.1858 20.2055 17.1858C18.3456 17.1858 16.8379 15.6781 16.8379 13.8183C16.8379 11.9584 18.3456 10.4507 20.2055 10.4507C22.0653 10.4507 23.573 11.9584 23.573 13.8183Z" stroke="#898989" stroke-width="2.02054"/>
<path d="M16.8379 20.5532L13.2861 22.9211C12.3492 23.5456 11.7865 24.5971 11.7865 25.7231V27.4006C11.7865 28.2685 12.4901 28.9721 13.358 28.9721H20.2054" stroke="#898989" stroke-width="2.02054" stroke-linecap="round" stroke-linejoin="round"/>
<path d="M27.7825 13.8184V21.3954M27.7825 21.3954V25.1584C27.7825 25.9075 27.249 26.5609 26.5002 26.5373C25.262 26.4983 23.573 26.0542 23.573 23.9211C23.573 20.5535 27.7825 21.3954 27.7825 21.3954Z" stroke="#898989" stroke-width="1.68378" stroke-linecap="round" stroke-linejoin="round"/>
</svg>
