<svg width="41" height="41" viewBox="0 0 41 41" fill="none" xmlns="http://www.w3.org/2000/svg">
<path d="M23.9838 13.8183C23.9838 15.6781 22.4761 17.1858 20.6162 17.1858C18.7564 17.1858 17.2487 15.6781 17.2487 13.8183C17.2487 11.9584 18.7564 10.4507 20.6162 10.4507C22.4761 10.4507 23.9838 11.9584 23.9838 13.8183Z" stroke="#898989" stroke-width="2.02054"/>
<path d="M17.2486 20.5532L13.6968 22.9211C12.76 23.5456 12.1973 24.5971 12.1973 25.7231V27.4006C12.1973 28.2685 12.9009 28.9721 13.7688 28.9721H20.6162" stroke="#898989" stroke-width="2.02054" stroke-linecap="round" stroke-linejoin="round"/>
<path d="M28.1932 13.8184V21.3954M28.1932 21.3954V25.1584C28.1932 25.9075 27.6597 26.5609 26.911 26.5373C25.6727 26.4983 23.9838 26.0542 23.9838 23.9211C23.9838 20.5535 28.1932 21.3954 28.1932 21.3954Z" stroke="#898989" stroke-width="1.68378" stroke-linecap="round" stroke-linejoin="round"/>
</svg>
