<svg width="41" height="42" viewBox="0 0 41 42" fill="none" xmlns="http://www.w3.org/2000/svg">
<rect y="41.1108" width="40.4108" height="40.4108" rx="20.2054" transform="rotate(-90 0 41.1108)" fill="#111111"/>
<path d="M23.9859 11.79L22.4681 10.2722M23.9859 11.79L17.2855 18.4904C17.1624 18.6135 17.0016 18.6918 16.8288 18.7128L14.0755 19.0475C13.4309 19.1259 13.1596 19.9123 13.6187 20.3714L17.5473 24.3M23.9859 11.79L30.0572 17.8614M31.5751 19.3792L30.0572 17.8614M30.0572 17.8614L23.3568 24.5617C23.2337 24.6849 23.1554 24.8457 23.1344 25.0185L22.7997 27.7718C22.7214 28.4164 21.935 28.6877 21.4758 28.2285L17.5473 24.3M17.5473 24.3L12.3795 29.4678" stroke="#1ED760" stroke-width="2" stroke-linecap="round" stroke-linejoin="round"/>
</svg>
