<svg width="41" height="41" viewBox="0 0 41 41" fill="none" xmlns="http://www.w3.org/2000/svg">
<path d="M22.0692 13.5676L20.2054 15.3735L18.3415 13.5676C16.3872 11.6739 13.252 11.7785 11.4282 13.7981C9.65841 15.7579 9.41476 18.6933 11.0173 20.792C11.2143 21.0499 11.4079 21.2969 11.5922 21.523C12.7586 22.9539 15.3036 25.4529 16.5788 26.794C17.5209 27.7848 18.3677 28.6111 19.0057 29.213C19.6794 29.8486 20.7193 29.8347 21.3943 29.2005C22.5707 28.0951 24.3746 26.3734 25.6453 25.037C26.9204 23.6959 27.6521 22.9539 28.8186 21.523C29.0028 21.2969 29.1965 21.0499 29.3934 20.792C30.996 18.6933 30.7523 15.7579 28.9826 13.7981C27.1587 11.7785 24.0236 11.6739 22.0692 13.5676Z" stroke="#898989" stroke-width="2.02054" stroke-linecap="round" stroke-linejoin="round"/>
</svg>
