<svg width="41" height="41" viewBox="0 0 41 41" fill="none" xmlns="http://www.w3.org/2000/svg">
<path d="M10.281 12.6285V12.6285C11.8606 12.6285 13.3375 13.4116 14.2239 14.7191L15.0595 15.9518L16.1859 17.6134M28.9274 25.9215H24.0025C22.6821 25.9215 21.4143 25.4045 20.4704 24.4813L19.5418 23.5731M28.9274 25.9215L25.4351 29.4663M28.9274 25.9215L25.4351 22.3767" stroke="#898989" stroke-width="2.02054" stroke-linecap="round" stroke-linejoin="round"/>
<path d="M10.281 27.9508V27.9508C11.8646 27.9508 13.3491 27.1805 14.2609 25.8858L20.4337 17.1199C21.3799 15.7763 22.9205 14.9769 24.5638 14.9769H28.9274M28.9274 14.9769L25.4351 11.4321M28.9274 14.9769L25.4351 18.5217" stroke="#898989" stroke-width="2.02054" stroke-linecap="round" stroke-linejoin="round"/>
</svg>
