<svg width="27" height="24" viewBox="0 0 27 24" fill="none" xmlns="http://www.w3.org/2000/svg">
<path d="M15.6347 3.55813L13.4999 5.62662L11.3651 3.55813C9.12659 1.38916 5.53566 1.50891 3.44666 3.82221C1.4196 6.06689 1.14053 9.42905 2.97608 11.8329C3.20164 12.1283 3.42343 12.4112 3.63449 12.6701C4.97051 14.3091 7.88551 17.1713 9.34603 18.7074C10.4251 19.8422 11.395 20.7887 12.1257 21.4781C12.8974 22.2061 14.0886 22.1902 14.8617 21.4637C16.2091 20.1977 18.2752 18.2256 19.7306 16.6949C21.1912 15.1589 22.0292 14.3091 23.3653 12.6701C23.5763 12.4112 23.7981 12.1283 24.0237 11.8329C25.8592 9.42905 25.5802 6.06689 23.5531 3.82221C21.4641 1.50891 17.8732 1.38916 15.6347 3.55813Z" stroke="#1ED760" stroke-width="2.98983" stroke-linecap="round" stroke-linejoin="round"/>
</svg>
